<svg width="26" height="26" viewBox="0 0 26 26" fill="none" xmlns="http://www.w3.org/2000/svg">
<g clip-path="url(#clip0_139_306)">
<path d="M23.6949 0.981201H2.30785C1.5753 0.981201 0.981445 1.57505 0.981445 2.30761V23.6946C0.981445 24.4272 1.5753 25.021 2.30785 25.021H23.6949C24.4274 25.021 25.0213 24.4272 25.0213 23.6946V2.30761C25.0213 1.57505 24.4274 0.981201 23.6949 0.981201Z" fill="#3D5A98"/>
<path d="M17.5663 25.0189V15.7097H20.6904L21.1575 12.0819H17.5663V9.76625C17.5663 8.71609 17.8588 7.99906 19.3639 7.99906H21.2855V4.74906C20.355 4.65226 19.4199 4.60615 18.4844 4.61093C15.7179 4.61093 13.8125 6.29687 13.8125 9.40671V12.0819H10.6885V15.7097H13.8125V25.0189H17.5663Z" fill="white"/>
</g>
<defs>
<clipPath id="clip0_139_306">
<rect width="26" height="26" fill="white"/>
</clipPath>
</defs>
</svg>
