<svg width="56" height="53" viewBox="0 0 56 53" fill="none" xmlns="http://www.w3.org/2000/svg">
<path d="M54.8788 18.5152C54.8788 18.5152 54.8788 21.0925 53.8219 24.4811L42.0447 12.7061C41.406 12.0666 40.5394 11.7069 39.6356 11.7061H29.1742C28.4119 11.7066 27.6717 11.9627 27.072 12.4334L22.9424 15.6652C22.659 15.8872 22.3346 16.0512 21.9877 16.1478C21.6409 16.2443 21.2784 16.2715 20.921 16.2278C20.5636 16.1841 20.2183 16.0704 19.905 15.8931C19.5916 15.7159 19.3162 15.4785 19.0947 15.1947C18.647 14.6208 18.4451 13.8928 18.5333 13.1702C18.6215 12.4477 18.9926 11.7896 19.5651 11.3402L33.656 0.333374H36.6969C41.5191 0.333374 46.1437 2.24895 49.5534 5.65871C52.9632 9.06846 54.8788 13.6931 54.8788 18.5152ZM8.02422 26.0834C7.79685 25.8554 7.52675 25.6746 7.22938 25.5512C6.93201 25.4278 6.61322 25.3643 6.29127 25.3643C5.96932 25.3643 5.65053 25.4278 5.35316 25.5512C5.05579 25.6746 4.78569 25.8554 4.55832 26.0834L1.04923 29.6061C0.589292 30.0678 0.331055 30.693 0.331055 31.3447C0.331055 31.9965 0.589292 32.6216 1.04923 33.0834C1.2766 33.3113 1.5467 33.4922 1.84407 33.6155C2.14144 33.7389 2.46023 33.8025 2.78218 33.8025C3.10413 33.8025 3.42292 33.7389 3.72029 33.6155C4.01766 33.4922 4.28776 33.3113 4.51513 33.0834L8.02422 29.5607C8.48402 29.0993 8.7422 28.4745 8.7422 27.8232C8.7422 27.1718 8.48402 26.547 8.02422 26.0856M11.6515 30.8334C11.8788 30.6048 12.149 30.4235 12.4466 30.2997C12.7442 30.1759 13.0633 30.1122 13.3856 30.1122C13.7079 30.1122 14.027 30.1759 14.3246 30.2997C14.6222 30.4235 14.8924 30.6048 15.1197 30.8334C15.5789 31.295 15.8367 31.9197 15.8367 32.5709C15.8367 33.222 15.5789 33.8467 15.1197 34.3084L11.606 37.8243C11.3788 38.0525 11.1088 38.2336 10.8114 38.3571C10.514 38.4807 10.1951 38.5443 9.87309 38.5443C9.55105 38.5443 9.23219 38.4807 8.9348 38.3571C8.63741 38.2336 8.36735 38.0525 8.14013 37.8243C7.68089 37.3626 7.42309 36.738 7.42309 36.0868C7.42309 35.4356 7.68089 34.8109 8.14013 34.3493L11.6515 30.8334ZM21.0083 36.7356C20.7809 36.5077 20.5108 36.3269 20.2135 36.2035C19.9161 36.0801 19.5973 36.0166 19.2754 36.0166C18.9534 36.0166 18.6346 36.0801 18.3373 36.2035C18.0399 36.3269 17.7698 36.5077 17.5424 36.7356L14.0333 40.2538C13.5728 40.7153 13.3142 41.3406 13.3142 41.9925C13.3142 42.6444 13.5728 43.2697 14.0333 43.7311C14.2605 43.9593 14.5306 44.1404 14.828 44.264C15.1254 44.3875 15.4442 44.4511 15.7663 44.4511C16.0883 44.4511 16.4072 44.3875 16.7046 44.264C17.002 44.1404 17.272 43.9593 17.4992 43.7311L21.0083 40.2106C21.4683 39.7489 21.7265 39.1237 21.7265 38.472C21.7265 37.8203 21.4683 37.1974 21.0083 36.7356ZM26.8947 42.6334C26.6674 42.4048 26.3972 42.2235 26.0996 42.0997C25.802 41.9759 25.4829 41.9122 25.1606 41.9122C24.8383 41.9122 24.5191 41.9759 24.2216 42.0997C23.924 42.2235 23.6538 42.4048 23.4265 42.6334L19.9174 46.1538C19.4582 46.6155 19.2004 47.2402 19.2004 47.8913C19.2004 48.5425 19.4582 49.1672 19.9174 49.6288C20.1446 49.857 20.4147 50.0381 20.7121 50.1617C21.0095 50.2852 21.3283 50.3489 21.6504 50.3489C21.9724 50.3489 22.2913 50.2852 22.5887 50.1617C22.886 50.0381 23.1561 49.857 23.3833 49.6288L26.8924 46.1084C27.3522 45.647 27.6104 45.0222 27.6104 44.3709C27.6104 43.7195 27.3522 43.0947 26.8924 42.6334M25.4219 0.99701C24.2248 0.643409 22.9924 0.422387 21.747 0.337919L21.5424 0.333374H20.7879C15.9657 0.333374 11.3411 2.24895 7.93138 5.65871C4.52162 9.06846 2.60604 13.6931 2.60604 18.5152V23.2584C3.72952 22.3443 5.15255 21.8802 6.59893 21.9562C8.0453 22.0322 9.41185 22.6429 10.4333 23.6697C11.3265 24.5675 11.872 25.6834 12.0674 26.847C12.9296 26.6495 13.8254 26.6496 14.6876 26.8474C15.5497 27.0452 16.356 27.4354 17.046 27.989C17.7359 28.5425 18.2917 29.245 18.6717 30.0438C19.0517 30.8426 19.246 31.717 19.2401 32.6016C20.0155 32.5979 20.7839 32.7481 21.5009 33.0435C22.2178 33.3388 22.8691 33.7734 23.4169 34.3221C23.9648 34.8708 24.3984 35.5227 24.6926 36.2401C24.9868 36.9575 25.1359 37.7262 25.131 38.5016C25.9046 38.4978 26.6712 38.6478 27.3864 38.9427C28.1015 39.2377 28.7509 39.6717 29.2969 40.2197C30.3947 41.3228 31.011 42.8158 31.011 44.372C31.011 45.9283 30.3947 47.4212 29.2969 48.5243L28.7856 49.0379L31.681 51.9107C32.1402 52.3624 32.7585 52.6156 33.4026 52.6156C34.0468 52.6156 34.6651 52.3624 35.1242 51.9107C36.0651 50.9788 36.0674 49.4697 35.1288 48.5357C34.8063 48.2159 34.624 47.7811 34.6221 47.327C34.6202 46.8728 34.7988 46.4365 35.1185 46.1141C35.4383 45.7916 35.8731 45.6093 36.3272 45.6074C36.7814 45.6055 37.2177 45.7841 37.5401 46.1038C37.9993 46.5556 38.6176 46.8088 39.2617 46.8088C39.9059 46.8088 40.5242 46.5556 40.9833 46.1038C41.2068 45.8831 41.3843 45.6203 41.5055 45.3305C41.6267 45.0407 41.6892 44.7298 41.6894 44.4157C41.6896 44.1016 41.6275 43.7906 41.5067 43.5006C41.3859 43.2107 41.2088 42.9476 40.9856 42.7266C40.6834 42.4027 40.5184 41.9744 40.5252 41.5315C40.5319 41.0886 40.7099 40.6655 41.0218 40.351C41.3337 40.0365 41.7552 39.8549 42.198 39.8444C42.6409 39.834 43.0705 39.9953 43.3969 40.2947C43.8566 40.7452 44.4747 40.9972 45.1183 40.9964C45.7619 40.9955 46.3794 40.7419 46.8379 40.2902C47.8015 39.3356 47.7969 37.7857 46.8765 36.8697L46.8697 36.8652L41.7492 31.7425C41.4481 31.4193 41.2842 30.992 41.292 30.5504C41.2998 30.1088 41.4787 29.6874 41.791 29.3751C42.1033 29.0628 42.5246 28.884 42.9662 28.8762C43.4078 28.8684 43.8352 29.0323 44.1583 29.3334L50.1492 35.3175C51.347 36.5061 53.3219 36.5175 54.3606 35.4879C55.3947 34.4629 55.3856 32.5175 54.1992 31.3379L54.1947 31.3334L39.1129 16.2538H29.5674L25.7447 19.2447C24.9911 19.8344 24.1288 20.2698 23.207 20.5261C22.2851 20.7824 21.3218 20.8546 20.3721 20.7385C19.4223 20.6224 18.5048 20.3204 17.6718 19.8496C16.8388 19.3788 16.1067 18.7485 15.5174 17.9947C14.3266 16.4712 13.7894 14.5373 14.0238 12.6178C14.2582 10.6984 15.245 8.95059 16.7674 7.75838L25.4219 0.99701Z" fill="#F4B020"/>
</svg>
