<svg width="57" height="52" viewBox="0 0 57 52" fill="none" xmlns="http://www.w3.org/2000/svg">
<path d="M56.3827 23.5555C56.3827 22.216 55.8506 20.9314 54.9034 19.9843C53.9563 19.0371 52.6717 18.505 51.3322 18.505H35.3726L37.7968 6.96461C37.8473 6.71209 37.8726 6.43431 37.8726 6.15653C37.8726 5.12118 37.4433 4.16158 36.7615 3.47976L34.0847 0.828247L17.4686 17.4444C16.5342 18.3788 15.9787 19.6414 15.9787 21.0303V46.2828C15.9787 47.6223 16.5108 48.9069 17.4579 49.854C18.4051 50.8012 19.6897 51.3333 21.0292 51.3333H43.7564C45.8524 51.3333 47.6453 50.0707 48.4029 48.2525L56.0292 30.4495C56.2564 29.8687 56.3827 29.2626 56.3827 28.606V23.5555ZM0.827148 51.3333H10.9282V21.0303H0.827148V51.3333Z" fill="#F4B020"/>
</svg>
